<svg width="610" height="769" viewBox="0 0 610 769" fill="none" xmlns="http://www.w3.org/2000/svg">
<g filter="url(#filter0_d_32_1137)">
<g clip-path="url(#clip0_32_1137)">
<rect x="40" y="25" width="242.5" height="304" rx="8" fill="white"/>
<rect x="111.25" y="65" width="100" height="100" rx="50" fill="#EBF7FF"/>
<g clip-path="url(#clip1_32_1137)">
<path d="M175.621 92.3594C174.379 91.1755 172.785 90.6097 171.181 90.6097C169.38 90.6097 167.548 91.3326 166.192 92.7051L165.613 93.2918L165.023 92.7051C163.667 91.3326 161.835 90.6097 160.034 90.6097C158.43 90.6097 156.836 91.1755 155.594 92.3594C152.862 94.9681 152.81 99.3265 155.449 101.998L165.613 112.286L175.776 101.998C178.405 99.3265 178.353 94.9681 175.621 92.3594Z" fill="#2AA7FF"/>
<path d="M185.598 117.525C184.035 116.456 182.193 116.76 180.568 117.714C178.933 118.656 169.576 126.755 169.576 126.755H160.365C159.941 126.755 159.475 126.263 159.475 125.833C159.475 125.33 159.91 124.932 160.365 124.932H165.995C167.972 124.932 170.177 123.633 170.177 121.318C170.177 118.856 167.972 117.703 165.995 117.703C162.57 117.703 161.907 117.714 161.907 117.714C160.541 117.714 159.144 117.63 158.078 117.053C156.65 116.31 155.004 115.891 153.244 115.891C150.295 115.891 147.656 117.085 145.844 118.96L136.25 128.547L146.962 139.39L150.533 135.776H168.604C170.404 135.776 172.143 135.105 173.478 133.9L185.712 120.008C186.467 119.327 186.416 118.091 185.598 117.525Z" fill="#2AA7FF"/>
</g>
<path d="M109.25 200.816H93.6979V209.024C94.3699 208.192 95.3299 207.52 96.5779 207.008C97.8259 206.464 99.1539 206.192 100.562 206.192C103.122 206.192 105.218 206.752 106.85 207.872C108.482 208.992 109.666 210.432 110.402 212.192C111.138 213.92 111.506 215.776 111.506 217.76C111.506 221.44 110.45 224.4 108.338 226.64C106.258 228.88 103.282 230 99.4099 230C95.7619 230 92.8499 229.088 90.6739 227.264C88.4979 225.44 87.2659 223.056 86.9779 220.112H93.5059C93.7939 221.392 94.4339 222.416 95.4259 223.184C96.4499 223.952 97.7459 224.336 99.3139 224.336C101.202 224.336 102.626 223.744 103.586 222.56C104.546 221.376 105.026 219.808 105.026 217.856C105.026 215.872 104.53 214.368 103.538 213.344C102.578 212.288 101.154 211.76 99.2659 211.76C97.9219 211.76 96.8019 212.096 95.9059 212.768C95.0099 213.44 94.3699 214.336 93.9859 215.456H87.5539V194.912H109.25V200.816ZM116.621 212.048C116.621 206.512 117.613 202.176 119.597 199.04C121.613 195.904 124.941 194.336 129.581 194.336C134.221 194.336 137.533 195.904 139.517 199.04C141.533 202.176 142.541 206.512 142.541 212.048C142.541 217.616 141.533 221.984 139.517 225.152C137.533 228.32 134.221 229.904 129.581 229.904C124.941 229.904 121.613 228.32 119.597 225.152C117.613 221.984 116.621 217.616 116.621 212.048ZM135.917 212.048C135.917 209.68 135.757 207.696 135.437 206.096C135.149 204.464 134.541 203.136 133.613 202.112C132.717 201.088 131.373 200.576 129.581 200.576C127.789 200.576 126.429 201.088 125.501 202.112C124.605 203.136 123.997 204.464 123.677 206.096C123.389 207.696 123.245 209.68 123.245 212.048C123.245 214.48 123.389 216.528 123.677 218.192C123.965 219.824 124.573 221.152 125.501 222.176C126.429 223.168 127.789 223.664 129.581 223.664C131.373 223.664 132.733 223.168 133.661 222.176C134.589 221.152 135.197 219.824 135.485 218.192C135.773 216.528 135.917 214.48 135.917 212.048ZM147.652 212.048C147.652 206.512 148.644 202.176 150.628 199.04C152.644 195.904 155.972 194.336 160.612 194.336C165.252 194.336 168.564 195.904 170.548 199.04C172.564 202.176 173.572 206.512 173.572 212.048C173.572 217.616 172.564 221.984 170.548 225.152C168.564 228.32 165.252 229.904 160.612 229.904C155.972 229.904 152.644 228.32 150.628 225.152C148.644 221.984 147.652 217.616 147.652 212.048ZM166.948 212.048C166.948 209.68 166.788 207.696 166.468 206.096C166.18 204.464 165.572 203.136 164.644 202.112C163.748 201.088 162.404 200.576 160.612 200.576C158.82 200.576 157.46 201.088 156.532 202.112C155.636 203.136 155.028 204.464 154.708 206.096C154.42 207.696 154.276 209.68 154.276 212.048C154.276 214.48 154.42 216.528 154.708 218.192C154.996 219.824 155.604 221.152 156.532 222.176C157.46 223.168 158.82 223.664 160.612 223.664C162.404 223.664 163.764 223.168 164.692 222.176C165.62 221.152 166.228 219.824 166.516 218.192C166.804 216.528 166.948 214.48 166.948 212.048ZM178.683 212.048C178.683 206.512 179.675 202.176 181.659 199.04C183.675 195.904 187.003 194.336 191.643 194.336C196.283 194.336 199.595 195.904 201.579 199.04C203.595 202.176 204.603 206.512 204.603 212.048C204.603 217.616 203.595 221.984 201.579 225.152C199.595 228.32 196.283 229.904 191.643 229.904C187.003 229.904 183.675 228.32 181.659 225.152C179.675 221.984 178.683 217.616 178.683 212.048ZM197.979 212.048C197.979 209.68 197.819 207.696 197.499 206.096C197.211 204.464 196.603 203.136 195.675 202.112C194.779 201.088 193.435 200.576 191.643 200.576C189.851 200.576 188.491 201.088 187.563 202.112C186.667 203.136 186.059 204.464 185.739 206.096C185.451 207.696 185.307 209.68 185.307 212.048C185.307 214.48 185.451 216.528 185.739 218.192C186.027 219.824 186.635 221.152 187.563 222.176C188.491 223.168 189.851 223.664 191.643 223.664C193.435 223.664 194.795 223.168 195.723 222.176C196.651 221.152 197.259 219.824 197.547 218.192C197.835 216.528 197.979 214.48 197.979 212.048ZM235.586 215.84H226.514V225.152H220.178V215.84H211.106V209.984H220.178V200.672H226.514V209.984H235.586V215.84Z" fill="#1B3C74"/>
<path d="M103.89 269.49V282H101.838V276.528H95.9518V282H93.8998V269.49H95.9518V274.854H101.838V269.49H103.89ZM105.907 276.996C105.907 276 106.111 275.118 106.519 274.35C106.939 273.582 107.503 272.988 108.211 272.568C108.931 272.136 109.723 271.92 110.587 271.92C111.367 271.92 112.045 272.076 112.621 272.388C113.209 272.688 113.677 273.066 114.025 273.522V272.082H116.095V282H114.025V280.524C113.677 280.992 113.203 281.382 112.603 281.694C112.003 282.006 111.319 282.162 110.551 282.162C109.699 282.162 108.919 281.946 108.211 281.514C107.503 281.07 106.939 280.458 106.519 279.678C106.111 278.886 105.907 277.992 105.907 276.996ZM114.025 277.032C114.025 276.348 113.881 275.754 113.593 275.25C113.317 274.746 112.951 274.362 112.495 274.098C112.039 273.834 111.547 273.702 111.019 273.702C110.491 273.702 109.999 273.834 109.543 274.098C109.087 274.35 108.715 274.728 108.427 275.232C108.151 275.724 108.013 276.312 108.013 276.996C108.013 277.68 108.151 278.28 108.427 278.796C108.715 279.312 109.087 279.708 109.543 279.984C110.011 280.248 110.503 280.38 111.019 280.38C111.547 280.38 112.039 280.248 112.495 279.984C112.951 279.72 113.317 279.336 113.593 278.832C113.881 278.316 114.025 277.716 114.025 277.032ZM120.842 273.54C121.19 273.084 121.664 272.7 122.264 272.388C122.864 272.076 123.542 271.92 124.298 271.92C125.162 271.92 125.948 272.136 126.656 272.568C127.376 272.988 127.94 273.582 128.348 274.35C128.756 275.118 128.96 276 128.96 276.996C128.96 277.992 128.756 278.886 128.348 279.678C127.94 280.458 127.376 281.07 126.656 281.514C125.948 281.946 125.162 282.162 124.298 282.162C123.542 282.162 122.87 282.012 122.282 281.712C121.694 281.4 121.214 281.016 120.842 280.56V286.716H118.79V272.082H120.842V273.54ZM126.872 276.996C126.872 276.312 126.728 275.724 126.44 275.232C126.164 274.728 125.792 274.35 125.324 274.098C124.868 273.834 124.376 273.702 123.848 273.702C123.332 273.702 122.84 273.834 122.372 274.098C121.916 274.362 121.544 274.746 121.256 275.25C120.98 275.754 120.842 276.348 120.842 277.032C120.842 277.716 120.98 278.316 121.256 278.832C121.544 279.336 121.916 279.72 122.372 279.984C122.84 280.248 123.332 280.38 123.848 280.38C124.376 280.38 124.868 280.248 125.324 279.984C125.792 279.708 126.164 279.312 126.44 278.796C126.728 278.28 126.872 277.68 126.872 276.996ZM133.042 273.54C133.39 273.084 133.864 272.7 134.464 272.388C135.064 272.076 135.742 271.92 136.498 271.92C137.362 271.92 138.148 272.136 138.856 272.568C139.576 272.988 140.14 273.582 140.548 274.35C140.956 275.118 141.16 276 141.16 276.996C141.16 277.992 140.956 278.886 140.548 279.678C140.14 280.458 139.576 281.07 138.856 281.514C138.148 281.946 137.362 282.162 136.498 282.162C135.742 282.162 135.07 282.012 134.482 281.712C133.894 281.4 133.414 281.016 133.042 280.56V286.716H130.99V272.082H133.042V273.54ZM139.072 276.996C139.072 276.312 138.928 275.724 138.64 275.232C138.364 274.728 137.992 274.35 137.524 274.098C137.068 273.834 136.576 273.702 136.048 273.702C135.532 273.702 135.04 273.834 134.572 274.098C134.116 274.362 133.744 274.746 133.456 275.25C133.18 275.754 133.042 276.348 133.042 277.032C133.042 277.716 133.18 278.316 133.456 278.832C133.744 279.336 134.116 279.72 134.572 279.984C135.04 280.248 135.532 280.38 136.048 280.38C136.576 280.38 137.068 280.248 137.524 279.984C137.992 279.708 138.364 279.312 138.64 278.796C138.928 278.28 139.072 277.68 139.072 276.996ZM152.117 272.082L146.033 286.662H143.909L145.925 281.838L142.019 272.082H144.305L147.095 279.642L149.993 272.082H152.117ZM167.089 273.216C167.089 273.852 166.939 274.452 166.639 275.016C166.339 275.58 165.859 276.042 165.199 276.402C164.539 276.75 163.693 276.924 162.661 276.924H160.393V282H158.341V269.49H162.661C163.621 269.49 164.431 269.658 165.091 269.994C165.763 270.318 166.261 270.762 166.585 271.326C166.921 271.89 167.089 272.52 167.089 273.216ZM162.661 275.25C163.441 275.25 164.023 275.076 164.407 274.728C164.791 274.368 164.983 273.864 164.983 273.216C164.983 271.848 164.209 271.164 162.661 271.164H160.393V275.25H162.661ZM168.362 276.996C168.362 276 168.566 275.118 168.974 274.35C169.394 273.582 169.958 272.988 170.666 272.568C171.386 272.136 172.178 271.92 173.042 271.92C173.822 271.92 174.5 272.076 175.076 272.388C175.664 272.688 176.132 273.066 176.48 273.522V272.082H178.55V282H176.48V280.524C176.132 280.992 175.658 281.382 175.058 281.694C174.458 282.006 173.774 282.162 173.006 282.162C172.154 282.162 171.374 281.946 170.666 281.514C169.958 281.07 169.394 280.458 168.974 279.678C168.566 278.886 168.362 277.992 168.362 276.996ZM176.48 277.032C176.48 276.348 176.336 275.754 176.048 275.25C175.772 274.746 175.406 274.362 174.95 274.098C174.494 273.834 174.002 273.702 173.474 273.702C172.946 273.702 172.454 273.834 171.998 274.098C171.542 274.35 171.17 274.728 170.882 275.232C170.606 275.724 170.468 276.312 170.468 276.996C170.468 277.68 170.606 278.28 170.882 278.796C171.17 279.312 171.542 279.708 171.998 279.984C172.466 280.248 172.958 280.38 173.474 280.38C174.002 280.38 174.494 280.248 174.95 279.984C175.406 279.72 175.772 279.336 176.048 278.832C176.336 278.316 176.48 277.716 176.48 277.032ZM183.64 273.756V279.246C183.64 279.618 183.724 279.888 183.892 280.056C184.072 280.212 184.372 280.29 184.792 280.29H186.052V282H184.432C183.508 282 182.8 281.784 182.308 281.352C181.816 280.92 181.57 280.218 181.57 279.246V273.756H180.4V272.082H181.57V269.616H183.64V272.082H186.052V273.756H183.64ZM188.987 270.768C188.615 270.768 188.303 270.642 188.051 270.39C187.799 270.138 187.673 269.826 187.673 269.454C187.673 269.082 187.799 268.77 188.051 268.518C188.303 268.266 188.615 268.14 188.987 268.14C189.347 268.14 189.653 268.266 189.905 268.518C190.157 268.77 190.283 269.082 190.283 269.454C190.283 269.826 190.157 270.138 189.905 270.39C189.653 270.642 189.347 270.768 188.987 270.768ZM189.995 272.082V282H187.943V272.082H189.995ZM201.779 276.798C201.779 277.17 201.755 277.506 201.707 277.806H194.129C194.189 278.598 194.483 279.234 195.011 279.714C195.539 280.194 196.187 280.434 196.955 280.434C198.059 280.434 198.839 279.972 199.295 279.048H201.509C201.209 279.96 200.663 280.71 199.871 281.298C199.091 281.874 198.119 282.162 196.955 282.162C196.007 282.162 195.155 281.952 194.399 281.532C193.655 281.1 193.067 280.5 192.635 279.732C192.215 278.952 192.005 278.052 192.005 277.032C192.005 276.012 192.209 275.118 192.617 274.35C193.037 273.57 193.619 272.97 194.363 272.55C195.119 272.13 195.983 271.92 196.955 271.92C197.891 271.92 198.725 272.124 199.457 272.532C200.189 272.94 200.759 273.516 201.167 274.26C201.575 274.992 201.779 275.838 201.779 276.798ZM199.637 276.15C199.625 275.394 199.355 274.788 198.827 274.332C198.299 273.876 197.645 273.648 196.865 273.648C196.157 273.648 195.551 273.876 195.047 274.332C194.543 274.776 194.243 275.382 194.147 276.15H199.637ZM208.802 271.92C209.582 271.92 210.278 272.082 210.89 272.406C211.514 272.73 212 273.21 212.348 273.846C212.696 274.482 212.87 275.25 212.87 276.15V282H210.836V276.456C210.836 275.568 210.614 274.89 210.17 274.422C209.726 273.942 209.12 273.702 208.352 273.702C207.584 273.702 206.972 273.942 206.516 274.422C206.072 274.89 205.85 275.568 205.85 276.456V282H203.798V272.082H205.85V273.216C206.186 272.808 206.612 272.49 207.128 272.262C207.656 272.034 208.214 271.92 208.802 271.92ZM217.882 273.756V279.246C217.882 279.618 217.966 279.888 218.134 280.056C218.314 280.212 218.614 280.29 219.034 280.29H220.294V282H218.674C217.75 282 217.042 281.784 216.55 281.352C216.058 280.92 215.812 280.218 215.812 279.246V273.756H214.642V272.082H215.812V269.616H217.882V272.082H220.294V273.756H217.882ZM225.785 282.162C225.005 282.162 224.303 282.024 223.679 281.748C223.067 281.46 222.581 281.076 222.221 280.596C221.861 280.104 221.669 279.558 221.645 278.958H223.769C223.805 279.378 224.003 279.732 224.363 280.02C224.735 280.296 225.197 280.434 225.749 280.434C226.325 280.434 226.769 280.326 227.081 280.11C227.405 279.882 227.567 279.594 227.567 279.246C227.567 278.874 227.387 278.598 227.027 278.418C226.679 278.238 226.121 278.04 225.353 277.824C224.609 277.62 224.003 277.422 223.535 277.23C223.067 277.038 222.659 276.744 222.311 276.348C221.975 275.952 221.807 275.43 221.807 274.782C221.807 274.254 221.963 273.774 222.275 273.342C222.587 272.898 223.031 272.55 223.607 272.298C224.195 272.046 224.867 271.92 225.623 271.92C226.751 271.92 227.657 272.208 228.341 272.784C229.037 273.348 229.409 274.122 229.457 275.106H227.405C227.369 274.662 227.189 274.308 226.865 274.044C226.541 273.78 226.103 273.648 225.551 273.648C225.011 273.648 224.597 273.75 224.309 273.954C224.021 274.158 223.877 274.428 223.877 274.764C223.877 275.028 223.973 275.25 224.165 275.43C224.357 275.61 224.591 275.754 224.867 275.862C225.143 275.958 225.551 276.084 226.091 276.24C226.811 276.432 227.399 276.63 227.855 276.834C228.323 277.026 228.725 277.314 229.061 277.698C229.397 278.082 229.571 278.592 229.583 279.228C229.583 279.792 229.427 280.296 229.115 280.74C228.803 281.184 228.359 281.532 227.783 281.784C227.219 282.036 226.553 282.162 225.785 282.162Z" fill="#77829D"/>
</g>
</g>
<g filter="url(#filter1_d_32_1137)">
<g clip-path="url(#clip2_32_1137)">
<rect x="317.5" y="74" width="252.5" height="304" rx="8" fill="white"/>
<rect x="388.75" y="114" width="110" height="110" rx="50" fill="#FFF2F0"/>
<path d="M466.25 195.25H443.75C442.715 195.25 441.875 194.41 441.875 193.375V144.625C441.875 143.59 442.715 142.75 443.75 142.75H466.25C467.285 142.75 468.125 143.59 468.125 144.625V193.375C468.125 194.41 467.285 195.25 466.25 195.25ZM445.625 191.5H464.375V146.5H445.625V191.5Z" fill="#FF684C"/>
<path d="M458.75 195.25H451.25C450.215 195.25 449.375 194.41 449.375 193.375V182.125C449.375 181.09 450.215 180.25 451.25 180.25H458.75C459.785 180.25 460.625 181.09 460.625 182.125V193.375C460.625 194.41 459.785 195.25 458.75 195.25ZM453.125 191.5H456.875V184H453.125V191.5Z" fill="#FF684C"/>
<path d="M443.75 195.25H421.25C420.215 195.25 419.375 194.41 419.375 193.375V163.375C419.375 162.34 420.215 161.5 421.25 161.5H443.75C444.785 161.5 445.625 162.34 445.625 163.375V193.375C445.625 194.41 444.785 195.25 443.75 195.25ZM423.125 191.5H441.875V165.25H423.125V191.5Z" fill="#FF684C"/>
<path d="M458.75 154H456.875V152.125C456.875 151.09 456.035 150.25 455 150.25C453.965 150.25 453.125 151.09 453.125 152.125V154H451.25C450.215 154 449.375 154.84 449.375 155.875C449.375 156.91 450.215 157.75 451.25 157.75H453.125V159.625C453.125 160.66 453.965 161.5 455 161.5C456.035 161.5 456.875 160.66 456.875 159.625V157.75H458.75C459.785 157.75 460.625 156.91 460.625 155.875C460.625 154.84 459.785 154 458.75 154Z" fill="#FF684C"/>
<path d="M428.75 176.5C427.715 176.5 426.875 175.66 426.875 174.625V170.875C426.875 169.84 427.715 169 428.75 169C429.785 169 430.625 169.84 430.625 170.875V174.625C430.625 175.66 429.785 176.5 428.75 176.5Z" fill="#FF684C"/>
<path d="M428.75 187.75C427.715 187.75 426.875 186.91 426.875 185.875V182.125C426.875 181.09 427.715 180.25 428.75 180.25C429.785 180.25 430.625 181.09 430.625 182.125V185.875C430.625 186.91 429.785 187.75 428.75 187.75Z" fill="#FF684C"/>
<path d="M436.25 176.5C435.215 176.5 434.375 175.66 434.375 174.625V170.875C434.375 169.84 435.215 169 436.25 169C437.285 169 438.125 169.84 438.125 170.875V174.625C438.125 175.66 437.285 176.5 436.25 176.5Z" fill="#FF684C"/>
<path d="M436.25 187.75C435.215 187.75 434.375 186.91 434.375 185.875V182.125C434.375 181.09 435.215 180.25 436.25 180.25C437.285 180.25 438.125 181.09 438.125 182.125V185.875C438.125 186.91 437.285 187.75 436.25 187.75Z" fill="#FF684C"/>
<path d="M458.75 176.5H451.25C450.215 176.5 449.375 175.66 449.375 174.625C449.375 173.59 450.215 172.75 451.25 172.75H458.75C459.785 172.75 460.625 173.59 460.625 174.625C460.625 175.66 459.785 176.5 458.75 176.5Z" fill="#FF684C"/>
<path d="M387.512 271.416C390.584 268.856 393.032 266.728 394.856 265.032C396.68 263.304 398.2 261.512 399.416 259.656C400.632 257.8 401.24 255.976 401.24 254.184C401.24 252.552 400.856 251.272 400.088 250.344C399.32 249.416 398.136 248.952 396.536 248.952C394.936 248.952 393.704 249.496 392.84 250.584C391.976 251.64 391.528 253.096 391.496 254.952H384.968C385.096 251.112 386.232 248.2 388.376 246.216C390.552 244.232 393.304 243.24 396.632 243.24C400.28 243.24 403.08 244.216 405.032 246.168C406.984 248.088 407.96 250.632 407.96 253.8C407.96 256.296 407.288 258.68 405.944 260.952C404.6 263.224 403.064 265.208 401.336 266.904C399.608 268.568 397.352 270.584 394.568 272.952H408.728V278.52H385.016V273.528L387.512 271.416ZM412.962 261.048C412.962 255.512 413.954 251.176 415.938 248.04C417.954 244.904 421.282 243.336 425.922 243.336C430.562 243.336 433.874 244.904 435.858 248.04C437.874 251.176 438.882 255.512 438.882 261.048C438.882 266.616 437.874 270.984 435.858 274.152C433.874 277.32 430.562 278.904 425.922 278.904C421.282 278.904 417.954 277.32 415.938 274.152C413.954 270.984 412.962 266.616 412.962 261.048ZM432.258 261.048C432.258 258.68 432.098 256.696 431.778 255.096C431.49 253.464 430.882 252.136 429.954 251.112C429.058 250.088 427.714 249.576 425.922 249.576C424.13 249.576 422.77 250.088 421.842 251.112C420.946 252.136 420.338 253.464 420.018 255.096C419.73 256.696 419.586 258.68 419.586 261.048C419.586 263.48 419.73 265.528 420.018 267.192C420.306 268.824 420.914 270.152 421.842 271.176C422.77 272.168 424.13 272.664 425.922 272.664C427.714 272.664 429.074 272.168 430.002 271.176C430.93 270.152 431.538 268.824 431.826 267.192C432.114 265.528 432.258 263.48 432.258 261.048ZM443.993 261.048C443.993 255.512 444.985 251.176 446.969 248.04C448.985 244.904 452.313 243.336 456.953 243.336C461.593 243.336 464.905 244.904 466.889 248.04C468.905 251.176 469.913 255.512 469.913 261.048C469.913 266.616 468.905 270.984 466.889 274.152C464.905 277.32 461.593 278.904 456.953 278.904C452.313 278.904 448.985 277.32 446.969 274.152C444.985 270.984 443.993 266.616 443.993 261.048ZM463.289 261.048C463.289 258.68 463.129 256.696 462.809 255.096C462.521 253.464 461.913 252.136 460.985 251.112C460.089 250.088 458.745 249.576 456.953 249.576C455.161 249.576 453.801 250.088 452.873 251.112C451.977 252.136 451.369 253.464 451.049 255.096C450.761 256.696 450.617 258.68 450.617 261.048C450.617 263.48 450.761 265.528 451.049 267.192C451.337 268.824 451.945 270.152 452.873 271.176C453.801 272.168 455.161 272.664 456.953 272.664C458.745 272.664 460.105 272.168 461.033 271.176C461.961 270.152 462.569 268.824 462.857 267.192C463.145 265.528 463.289 263.48 463.289 261.048ZM500.897 264.84H491.825V274.152H485.489V264.84H476.417V258.984H485.489V249.672H491.825V258.984H500.897V264.84Z" fill="#1B3C74"/>
<path d="M413.186 317.99V330.5H411.134V325.028H405.248V330.5H403.196V317.99H405.248V323.354H411.134V317.99H413.186ZM420.189 330.662C419.253 330.662 418.407 330.452 417.651 330.032C416.895 329.6 416.301 329 415.869 328.232C415.437 327.452 415.221 326.552 415.221 325.532C415.221 324.524 415.443 323.63 415.887 322.85C416.331 322.07 416.937 321.47 417.705 321.05C418.473 320.63 419.331 320.42 420.279 320.42C421.227 320.42 422.085 320.63 422.853 321.05C423.621 321.47 424.227 322.07 424.671 322.85C425.115 323.63 425.337 324.524 425.337 325.532C425.337 326.54 425.109 327.434 424.653 328.214C424.197 328.994 423.573 329.6 422.781 330.032C422.001 330.452 421.137 330.662 420.189 330.662ZM420.189 328.88C420.717 328.88 421.209 328.754 421.665 328.502C422.133 328.25 422.511 327.872 422.799 327.368C423.087 326.864 423.231 326.252 423.231 325.532C423.231 324.812 423.093 324.206 422.817 323.714C422.541 323.21 422.175 322.832 421.719 322.58C421.263 322.328 420.771 322.202 420.243 322.202C419.715 322.202 419.223 322.328 418.767 322.58C418.323 322.832 417.969 323.21 417.705 323.714C417.441 324.206 417.309 324.812 417.309 325.532C417.309 326.6 417.579 327.428 418.119 328.016C418.671 328.592 419.361 328.88 420.189 328.88ZM430.966 330.662C430.186 330.662 429.484 330.524 428.86 330.248C428.248 329.96 427.762 329.576 427.402 329.096C427.042 328.604 426.85 328.058 426.826 327.458H428.95C428.986 327.878 429.184 328.232 429.544 328.52C429.916 328.796 430.378 328.934 430.93 328.934C431.506 328.934 431.95 328.826 432.262 328.61C432.586 328.382 432.748 328.094 432.748 327.746C432.748 327.374 432.568 327.098 432.208 326.918C431.86 326.738 431.302 326.54 430.534 326.324C429.79 326.12 429.184 325.922 428.716 325.73C428.248 325.538 427.84 325.244 427.492 324.848C427.156 324.452 426.988 323.93 426.988 323.282C426.988 322.754 427.144 322.274 427.456 321.842C427.768 321.398 428.212 321.05 428.788 320.798C429.376 320.546 430.048 320.42 430.804 320.42C431.932 320.42 432.838 320.708 433.522 321.284C434.218 321.848 434.59 322.622 434.638 323.606H432.586C432.55 323.162 432.37 322.808 432.046 322.544C431.722 322.28 431.284 322.148 430.732 322.148C430.192 322.148 429.778 322.25 429.49 322.454C429.202 322.658 429.058 322.928 429.058 323.264C429.058 323.528 429.154 323.75 429.346 323.93C429.538 324.11 429.772 324.254 430.048 324.362C430.324 324.458 430.732 324.584 431.272 324.74C431.992 324.932 432.58 325.13 433.036 325.334C433.504 325.526 433.906 325.814 434.242 326.198C434.578 326.582 434.752 327.092 434.764 327.728C434.764 328.292 434.608 328.796 434.296 329.24C433.984 329.684 433.54 330.032 432.964 330.284C432.4 330.536 431.734 330.662 430.966 330.662ZM439.033 322.04C439.381 321.584 439.855 321.2 440.455 320.888C441.055 320.576 441.733 320.42 442.489 320.42C443.353 320.42 444.139 320.636 444.847 321.068C445.567 321.488 446.131 322.082 446.539 322.85C446.947 323.618 447.151 324.5 447.151 325.496C447.151 326.492 446.947 327.386 446.539 328.178C446.131 328.958 445.567 329.57 444.847 330.014C444.139 330.446 443.353 330.662 442.489 330.662C441.733 330.662 441.061 330.512 440.473 330.212C439.885 329.9 439.405 329.516 439.033 329.06V335.216H436.981V320.582H439.033V322.04ZM445.063 325.496C445.063 324.812 444.919 324.224 444.631 323.732C444.355 323.228 443.983 322.85 443.515 322.598C443.059 322.334 442.567 322.202 442.039 322.202C441.523 322.202 441.031 322.334 440.563 322.598C440.107 322.862 439.735 323.246 439.447 323.75C439.171 324.254 439.033 324.848 439.033 325.532C439.033 326.216 439.171 326.816 439.447 327.332C439.735 327.836 440.107 328.22 440.563 328.484C441.031 328.748 441.523 328.88 442.039 328.88C442.567 328.88 443.059 328.748 443.515 328.484C443.983 328.208 444.355 327.812 444.631 327.296C444.919 326.78 445.063 326.18 445.063 325.496ZM450.224 319.268C449.852 319.268 449.54 319.142 449.288 318.89C449.036 318.638 448.91 318.326 448.91 317.954C448.91 317.582 449.036 317.27 449.288 317.018C449.54 316.766 449.852 316.64 450.224 316.64C450.584 316.64 450.89 316.766 451.142 317.018C451.394 317.27 451.52 317.582 451.52 317.954C451.52 318.326 451.394 318.638 451.142 318.89C450.89 319.142 450.584 319.268 450.224 319.268ZM451.232 320.582V330.5H449.18V320.582H451.232ZM456.32 322.256V327.746C456.32 328.118 456.404 328.388 456.572 328.556C456.752 328.712 457.052 328.79 457.472 328.79H458.732V330.5H457.112C456.188 330.5 455.48 330.284 454.988 329.852C454.496 329.42 454.25 328.718 454.25 327.746V322.256H453.08V320.582H454.25V318.116H456.32V320.582H458.732V322.256H456.32ZM459.94 325.496C459.94 324.5 460.144 323.618 460.552 322.85C460.972 322.082 461.536 321.488 462.244 321.068C462.964 320.636 463.756 320.42 464.62 320.42C465.4 320.42 466.078 320.576 466.654 320.888C467.242 321.188 467.71 321.566 468.058 322.022V320.582H470.128V330.5H468.058V329.024C467.71 329.492 467.236 329.882 466.636 330.194C466.036 330.506 465.352 330.662 464.584 330.662C463.732 330.662 462.952 330.446 462.244 330.014C461.536 329.57 460.972 328.958 460.552 328.178C460.144 327.386 459.94 326.492 459.94 325.496ZM468.058 325.532C468.058 324.848 467.914 324.254 467.626 323.75C467.35 323.246 466.984 322.862 466.528 322.598C466.072 322.334 465.58 322.202 465.052 322.202C464.524 322.202 464.032 322.334 463.576 322.598C463.12 322.85 462.748 323.228 462.46 323.732C462.184 324.224 462.046 324.812 462.046 325.496C462.046 326.18 462.184 326.78 462.46 327.296C462.748 327.812 463.12 328.208 463.576 328.484C464.044 328.748 464.536 328.88 465.052 328.88C465.58 328.88 466.072 328.748 466.528 328.484C466.984 328.22 467.35 327.836 467.626 327.332C467.914 326.816 468.058 326.216 468.058 325.532ZM474.875 317.18V330.5H472.823V317.18H474.875ZM481.169 330.662C480.389 330.662 479.687 330.524 479.063 330.248C478.451 329.96 477.965 329.576 477.605 329.096C477.245 328.604 477.053 328.058 477.029 327.458H479.153C479.189 327.878 479.387 328.232 479.747 328.52C480.119 328.796 480.581 328.934 481.133 328.934C481.709 328.934 482.153 328.826 482.465 328.61C482.789 328.382 482.951 328.094 482.951 327.746C482.951 327.374 482.771 327.098 482.411 326.918C482.063 326.738 481.505 326.54 480.737 326.324C479.993 326.12 479.387 325.922 478.919 325.73C478.451 325.538 478.043 325.244 477.695 324.848C477.359 324.452 477.191 323.93 477.191 323.282C477.191 322.754 477.347 322.274 477.659 321.842C477.971 321.398 478.415 321.05 478.991 320.798C479.579 320.546 480.251 320.42 481.007 320.42C482.135 320.42 483.041 320.708 483.725 321.284C484.421 321.848 484.793 322.622 484.841 323.606H482.789C482.753 323.162 482.573 322.808 482.249 322.544C481.925 322.28 481.487 322.148 480.935 322.148C480.395 322.148 479.981 322.25 479.693 322.454C479.405 322.658 479.261 322.928 479.261 323.264C479.261 323.528 479.357 323.75 479.549 323.93C479.741 324.11 479.975 324.254 480.251 324.362C480.527 324.458 480.935 324.584 481.475 324.74C482.195 324.932 482.783 325.13 483.239 325.334C483.707 325.526 484.109 325.814 484.445 326.198C484.781 326.582 484.955 327.092 484.967 327.728C484.967 328.292 484.811 328.796 484.499 329.24C484.187 329.684 483.743 330.032 483.167 330.284C482.603 330.536 481.937 330.662 481.169 330.662Z" fill="#77829D"/>
</g>
</g>
<g filter="url(#filter2_d_32_1137)">
<g clip-path="url(#clip3_32_1137)">
<rect x="40" y="364" width="242.5" height="304" rx="8" fill="white"/>
<rect x="106.25" y="404" width="110" height="110" rx="50" fill="#FFF7E6"/>
<path d="M165 466.5H172.5V483.375H176.25V464.625C176.25 463.589 175.411 462.75 174.375 462.75H163.125C162.089 462.75 161.25 463.589 161.25 464.625V483.375H165V466.5Z" fill="#FFB200"/>
<path d="M181.875 447.75H172.5V451.5H180V481.5H142.5V451.5H150V447.75H140.625C139.589 447.75 138.75 448.589 138.75 449.625V483.375C138.75 484.411 139.589 485.25 140.625 485.25H181.875C182.911 485.25 183.75 484.411 183.75 483.375V449.625C183.75 448.589 182.911 447.75 181.875 447.75Z" fill="#FFB200"/>
<path d="M150 447.75H138.75V444H150V440.25H136.875C135.839 440.25 135 441.089 135 442.125V449.625C135 450.661 135.839 451.5 136.875 451.5H150V447.75Z" fill="#FFB200"/>
<path d="M185.625 440.25H172.5V444H183.75V447.75H172.5V451.5H185.625C186.661 451.5 187.5 450.661 187.5 449.625V442.125C187.5 441.089 186.661 440.25 185.625 440.25Z" fill="#FFB200"/>
<path d="M172.5 459H150C148.964 459 148.125 458.161 148.125 457.125V434.625C148.125 433.589 148.964 432.75 150 432.75H172.5C173.536 432.75 174.375 433.589 174.375 434.625V457.125C174.375 458.161 173.536 459 172.5 459ZM151.875 455.25H170.625V436.5H151.875V455.25Z" fill="#FFB200"/>
<path d="M165 444H163.125V442.125C163.125 441.089 162.286 440.25 161.25 440.25C160.214 440.25 159.375 441.089 159.375 442.125V444H157.5C156.464 444 155.625 444.839 155.625 445.875C155.625 446.911 156.464 447.75 157.5 447.75H159.375V449.625C159.375 450.661 160.214 451.5 161.25 451.5C162.286 451.5 163.125 450.661 163.125 449.625V447.75H165C166.036 447.75 166.875 446.911 166.875 445.875C166.875 444.839 166.036 444 165 444Z" fill="#FFB200"/>
<path d="M155.625 474H148.125C147.089 474 146.25 473.161 146.25 472.125V468.375C146.25 465.273 148.773 462.75 151.875 462.75C154.977 462.75 157.5 465.273 157.5 468.375V472.125C157.5 473.161 156.661 474 155.625 474ZM150 470.25H153.75V468.375C153.75 467.34 152.91 466.5 151.875 466.5C150.84 466.5 150 467.34 150 468.375V470.25Z" fill="#FFB200"/>
<path d="M91.8139 540.2V534.008H103.382V569H96.4699V540.2H91.8139ZM110.021 551.048C110.021 545.512 111.013 541.176 112.997 538.04C115.013 534.904 118.341 533.336 122.981 533.336C127.621 533.336 130.933 534.904 132.917 538.04C134.933 541.176 135.941 545.512 135.941 551.048C135.941 556.616 134.933 560.984 132.917 564.152C130.933 567.32 127.621 568.904 122.981 568.904C118.341 568.904 115.013 567.32 112.997 564.152C111.013 560.984 110.021 556.616 110.021 551.048ZM129.317 551.048C129.317 548.68 129.157 546.696 128.837 545.096C128.549 543.464 127.941 542.136 127.013 541.112C126.117 540.088 124.773 539.576 122.981 539.576C121.189 539.576 119.829 540.088 118.901 541.112C118.005 542.136 117.397 543.464 117.077 545.096C116.789 546.696 116.645 548.68 116.645 551.048C116.645 553.48 116.789 555.528 117.077 557.192C117.365 558.824 117.973 560.152 118.901 561.176C119.829 562.168 121.189 562.664 122.981 562.664C124.773 562.664 126.133 562.168 127.061 561.176C127.989 560.152 128.597 558.824 128.885 557.192C129.173 555.528 129.317 553.48 129.317 551.048ZM141.052 551.048C141.052 545.512 142.044 541.176 144.028 538.04C146.044 534.904 149.372 533.336 154.012 533.336C158.652 533.336 161.964 534.904 163.948 538.04C165.964 541.176 166.972 545.512 166.972 551.048C166.972 556.616 165.964 560.984 163.948 564.152C161.964 567.32 158.652 568.904 154.012 568.904C149.372 568.904 146.044 567.32 144.028 564.152C142.044 560.984 141.052 556.616 141.052 551.048ZM160.348 551.048C160.348 548.68 160.188 546.696 159.868 545.096C159.58 543.464 158.972 542.136 158.044 541.112C157.148 540.088 155.804 539.576 154.012 539.576C152.22 539.576 150.86 540.088 149.932 541.112C149.036 542.136 148.428 543.464 148.108 545.096C147.82 546.696 147.676 548.68 147.676 551.048C147.676 553.48 147.82 555.528 148.108 557.192C148.396 558.824 149.004 560.152 149.932 561.176C150.86 562.168 152.22 562.664 154.012 562.664C155.804 562.664 157.164 562.168 158.092 561.176C159.02 560.152 159.628 558.824 159.916 557.192C160.204 555.528 160.348 553.48 160.348 551.048ZM172.083 551.048C172.083 545.512 173.075 541.176 175.059 538.04C177.075 534.904 180.403 533.336 185.043 533.336C189.683 533.336 192.995 534.904 194.979 538.04C196.995 541.176 198.003 545.512 198.003 551.048C198.003 556.616 196.995 560.984 194.979 564.152C192.995 567.32 189.683 568.904 185.043 568.904C180.403 568.904 177.075 567.32 175.059 564.152C173.075 560.984 172.083 556.616 172.083 551.048ZM191.379 551.048C191.379 548.68 191.219 546.696 190.899 545.096C190.611 543.464 190.003 542.136 189.075 541.112C188.179 540.088 186.835 539.576 185.043 539.576C183.251 539.576 181.891 540.088 180.963 541.112C180.067 542.136 179.459 543.464 179.139 545.096C178.851 546.696 178.707 548.68 178.707 551.048C178.707 553.48 178.851 555.528 179.139 557.192C179.427 558.824 180.035 560.152 180.963 561.176C181.891 562.168 183.251 562.664 185.043 562.664C186.835 562.664 188.195 562.168 189.123 561.176C190.051 560.152 190.659 558.824 190.947 557.192C191.235 555.528 191.379 553.48 191.379 551.048ZM228.986 554.84H219.914V564.152H213.578V554.84H204.506V548.984H213.578V539.672H219.914V548.984H228.986V554.84Z" fill="#1B3C74"/>
<path d="M107.988 618.844H112.218V620.5H105.936V607.99H107.988V618.844ZM113.251 615.496C113.251 614.5 113.455 613.618 113.863 612.85C114.283 612.082 114.847 611.488 115.555 611.068C116.275 610.636 117.067 610.42 117.931 610.42C118.711 610.42 119.389 610.576 119.965 610.888C120.553 611.188 121.021 611.566 121.369 612.022V610.582H123.439V620.5H121.369V619.024C121.021 619.492 120.547 619.882 119.947 620.194C119.347 620.506 118.663 620.662 117.895 620.662C117.043 620.662 116.263 620.446 115.555 620.014C114.847 619.57 114.283 618.958 113.863 618.178C113.455 617.386 113.251 616.492 113.251 615.496ZM121.369 615.532C121.369 614.848 121.225 614.254 120.937 613.75C120.661 613.246 120.295 612.862 119.839 612.598C119.383 612.334 118.891 612.202 118.363 612.202C117.835 612.202 117.343 612.334 116.887 612.598C116.431 612.85 116.059 613.228 115.771 613.732C115.495 614.224 115.357 614.812 115.357 615.496C115.357 616.18 115.495 616.78 115.771 617.296C116.059 617.812 116.431 618.208 116.887 618.484C117.355 618.748 117.847 618.88 118.363 618.88C118.891 618.88 119.383 618.748 119.839 618.484C120.295 618.22 120.661 617.836 120.937 617.332C121.225 616.816 121.369 616.216 121.369 615.532ZM128.186 612.058C128.534 611.578 129.008 611.188 129.608 610.888C130.22 610.576 130.898 610.42 131.642 610.42C132.518 610.42 133.31 610.63 134.018 611.05C134.726 611.47 135.284 612.07 135.692 612.85C136.1 613.618 136.304 614.5 136.304 615.496C136.304 616.492 136.1 617.386 135.692 618.178C135.284 618.958 134.72 619.57 134 620.014C133.292 620.446 132.506 620.662 131.642 620.662C130.874 620.662 130.19 620.512 129.59 620.212C129.002 619.912 128.534 619.528 128.186 619.06V620.5H126.134V607.18H128.186V612.058ZM134.216 615.496C134.216 614.812 134.072 614.224 133.784 613.732C133.508 613.228 133.136 612.85 132.668 612.598C132.212 612.334 131.72 612.202 131.192 612.202C130.676 612.202 130.184 612.334 129.716 612.598C129.26 612.862 128.888 613.246 128.6 613.75C128.324 614.254 128.186 614.848 128.186 615.532C128.186 616.216 128.324 616.816 128.6 617.332C128.888 617.836 129.26 618.22 129.716 618.484C130.184 618.748 130.676 618.88 131.192 618.88C131.72 618.88 132.212 618.748 132.668 618.484C133.136 618.208 133.508 617.812 133.784 617.296C134.072 616.78 134.216 616.18 134.216 615.496ZM142.635 620.662C141.699 620.662 140.853 620.452 140.097 620.032C139.341 619.6 138.747 619 138.315 618.232C137.883 617.452 137.667 616.552 137.667 615.532C137.667 614.524 137.889 613.63 138.333 612.85C138.777 612.07 139.383 611.47 140.151 611.05C140.919 610.63 141.777 610.42 142.725 610.42C143.673 610.42 144.531 610.63 145.299 611.05C146.067 611.47 146.673 612.07 147.117 612.85C147.561 613.63 147.783 614.524 147.783 615.532C147.783 616.54 147.555 617.434 147.099 618.214C146.643 618.994 146.019 619.6 145.227 620.032C144.447 620.452 143.583 620.662 142.635 620.662ZM142.635 618.88C143.163 618.88 143.655 618.754 144.111 618.502C144.579 618.25 144.957 617.872 145.245 617.368C145.533 616.864 145.677 616.252 145.677 615.532C145.677 614.812 145.539 614.206 145.263 613.714C144.987 613.21 144.621 612.832 144.165 612.58C143.709 612.328 143.217 612.202 142.689 612.202C142.161 612.202 141.669 612.328 141.213 612.58C140.769 612.832 140.415 613.21 140.151 613.714C139.887 614.206 139.755 614.812 139.755 615.532C139.755 616.6 140.025 617.428 140.565 618.016C141.117 618.592 141.807 618.88 142.635 618.88ZM151.863 612.022C152.163 611.518 152.559 611.128 153.051 610.852C153.555 610.564 154.149 610.42 154.833 610.42V612.544H154.311C153.507 612.544 152.895 612.748 152.475 613.156C152.067 613.564 151.863 614.272 151.863 615.28V620.5H149.811V610.582H151.863V612.022ZM156.036 615.496C156.036 614.5 156.24 613.618 156.648 612.85C157.068 612.082 157.632 611.488 158.34 611.068C159.06 610.636 159.852 610.42 160.716 610.42C161.496 610.42 162.174 610.576 162.75 610.888C163.338 611.188 163.806 611.566 164.154 612.022V610.582H166.224V620.5H164.154V619.024C163.806 619.492 163.332 619.882 162.732 620.194C162.132 620.506 161.448 620.662 160.68 620.662C159.828 620.662 159.048 620.446 158.34 620.014C157.632 619.57 157.068 618.958 156.648 618.178C156.24 617.386 156.036 616.492 156.036 615.496ZM164.154 615.532C164.154 614.848 164.01 614.254 163.722 613.75C163.446 613.246 163.08 612.862 162.624 612.598C162.168 612.334 161.676 612.202 161.148 612.202C160.62 612.202 160.128 612.334 159.672 612.598C159.216 612.85 158.844 613.228 158.556 613.732C158.28 614.224 158.142 614.812 158.142 615.496C158.142 616.18 158.28 616.78 158.556 617.296C158.844 617.812 159.216 618.208 159.672 618.484C160.14 618.748 160.632 618.88 161.148 618.88C161.676 618.88 162.168 618.748 162.624 618.484C163.08 618.22 163.446 617.836 163.722 617.332C164.01 616.816 164.154 616.216 164.154 615.532ZM171.313 612.256V617.746C171.313 618.118 171.397 618.388 171.565 618.556C171.745 618.712 172.045 618.79 172.465 618.79H173.725V620.5H172.105C171.181 620.5 170.473 620.284 169.981 619.852C169.489 619.42 169.243 618.718 169.243 617.746V612.256H168.073V610.582H169.243V608.116H171.313V610.582H173.725V612.256H171.313ZM179.918 620.662C178.982 620.662 178.136 620.452 177.38 620.032C176.624 619.6 176.03 619 175.598 618.232C175.166 617.452 174.95 616.552 174.95 615.532C174.95 614.524 175.172 613.63 175.616 612.85C176.06 612.07 176.666 611.47 177.434 611.05C178.202 610.63 179.06 610.42 180.008 610.42C180.956 610.42 181.814 610.63 182.582 611.05C183.35 611.47 183.956 612.07 184.4 612.85C184.844 613.63 185.066 614.524 185.066 615.532C185.066 616.54 184.838 617.434 184.382 618.214C183.926 618.994 183.302 619.6 182.51 620.032C181.73 620.452 180.866 620.662 179.918 620.662ZM179.918 618.88C180.446 618.88 180.938 618.754 181.394 618.502C181.862 618.25 182.24 617.872 182.528 617.368C182.816 616.864 182.96 616.252 182.96 615.532C182.96 614.812 182.822 614.206 182.546 613.714C182.27 613.21 181.904 612.832 181.448 612.58C180.992 612.328 180.5 612.202 179.972 612.202C179.444 612.202 178.952 612.328 178.496 612.58C178.052 612.832 177.698 613.21 177.434 613.714C177.17 614.206 177.038 614.812 177.038 615.532C177.038 616.6 177.308 617.428 177.848 618.016C178.4 618.592 179.09 618.88 179.918 618.88ZM189.147 612.022C189.447 611.518 189.843 611.128 190.335 610.852C190.839 610.564 191.433 610.42 192.117 610.42V612.544H191.595C190.791 612.544 190.179 612.748 189.759 613.156C189.351 613.564 189.147 614.272 189.147 615.28V620.5H187.095V610.582H189.147V612.022ZM195.047 609.268C194.675 609.268 194.363 609.142 194.111 608.89C193.859 608.638 193.733 608.326 193.733 607.954C193.733 607.582 193.859 607.27 194.111 607.018C194.363 606.766 194.675 606.64 195.047 606.64C195.407 606.64 195.713 606.766 195.965 607.018C196.217 607.27 196.343 607.582 196.343 607.954C196.343 608.326 196.217 608.638 195.965 608.89C195.713 609.142 195.407 609.268 195.047 609.268ZM196.055 610.582V620.5H194.003V610.582H196.055ZM207.839 615.298C207.839 615.67 207.815 616.006 207.767 616.306H200.189C200.249 617.098 200.543 617.734 201.071 618.214C201.599 618.694 202.247 618.934 203.015 618.934C204.119 618.934 204.899 618.472 205.355 617.548H207.569C207.269 618.46 206.723 619.21 205.931 619.798C205.151 620.374 204.179 620.662 203.015 620.662C202.067 620.662 201.215 620.452 200.459 620.032C199.715 619.6 199.127 619 198.695 618.232C198.275 617.452 198.065 616.552 198.065 615.532C198.065 614.512 198.269 613.618 198.677 612.85C199.097 612.07 199.679 611.47 200.423 611.05C201.179 610.63 202.043 610.42 203.015 610.42C203.951 610.42 204.785 610.624 205.517 611.032C206.249 611.44 206.819 612.016 207.227 612.76C207.635 613.492 207.839 614.338 207.839 615.298ZM205.697 614.65C205.685 613.894 205.415 613.288 204.887 612.832C204.359 612.376 203.705 612.148 202.925 612.148C202.217 612.148 201.611 612.376 201.107 612.832C200.603 613.276 200.303 613.882 200.207 614.65H205.697ZM213.458 620.662C212.678 620.662 211.976 620.524 211.352 620.248C210.74 619.96 210.254 619.576 209.894 619.096C209.534 618.604 209.342 618.058 209.318 617.458H211.442C211.478 617.878 211.676 618.232 212.036 618.52C212.408 618.796 212.87 618.934 213.422 618.934C213.998 618.934 214.442 618.826 214.754 618.61C215.078 618.382 215.24 618.094 215.24 617.746C215.24 617.374 215.06 617.098 214.7 616.918C214.352 616.738 213.794 616.54 213.026 616.324C212.282 616.12 211.676 615.922 211.208 615.73C210.74 615.538 210.332 615.244 209.984 614.848C209.648 614.452 209.48 613.93 209.48 613.282C209.48 612.754 209.636 612.274 209.948 611.842C210.26 611.398 210.704 611.05 211.28 610.798C211.868 610.546 212.54 610.42 213.296 610.42C214.424 610.42 215.33 610.708 216.014 611.284C216.71 611.848 217.082 612.622 217.13 613.606H215.078C215.042 613.162 214.862 612.808 214.538 612.544C214.214 612.28 213.776 612.148 213.224 612.148C212.684 612.148 212.27 612.25 211.982 612.454C211.694 612.658 211.55 612.928 211.55 613.264C211.55 613.528 211.646 613.75 211.838 613.93C212.03 614.11 212.264 614.254 212.54 614.362C212.816 614.458 213.224 614.584 213.764 614.74C214.484 614.932 215.072 615.13 215.528 615.334C215.996 615.526 216.398 615.814 216.734 616.198C217.07 616.582 217.244 617.092 217.256 617.728C217.256 618.292 217.1 618.796 216.788 619.24C216.476 619.684 216.032 620.032 215.456 620.284C214.892 620.536 214.226 620.662 213.458 620.662Z" fill="#77829D"/>
</g>
</g>
<g filter="url(#filter3_d_32_1137)">
<g clip-path="url(#clip4_32_1137)">
<rect x="317.5" y="410" width="252.5" height="304" rx="8" fill="white"/>
<rect x="393.75" y="450" width="100" height="100" rx="50" fill="#EBFAF1"/>
<g clip-path="url(#clip5_32_1137)">
<path d="M428.617 511.139C428.956 510.806 429.323 510.546 429.699 510.352C429.845 510.019 430.093 509.741 430.395 509.565C430.414 508.232 430.615 507.083 430.991 506.13C426.692 508.333 423.75 512.833 423.75 518.028C423.75 524.676 428.553 525 434.841 525C435.528 525 436.234 525 436.949 525H450.542C451.257 525 451.963 525 452.65 525C458.938 525 463.75 524.676 463.75 518.028C463.75 512.778 460.744 508.232 456.372 506.056C456.793 507.046 457.041 508.25 457.095 509.648C458.525 509.982 459.598 511.269 459.598 512.815C459.598 514.611 458.15 516.065 456.381 516.065C454.602 516.065 453.163 514.611 453.163 512.815C453.163 511.287 454.208 510.009 455.611 509.657C455.547 508.269 455.226 506.157 453.878 505.111C453.191 504.926 452.485 504.796 451.761 504.732C451.706 507.167 443.75 513.167 443.75 513.167C443.75 513.167 435.794 507.167 435.739 504.732C434.932 504.806 434.153 504.954 433.393 505.167C432.412 505.954 431.908 507.417 431.88 509.537C432.164 509.704 432.403 509.963 432.54 510.287C433.594 510.787 434.529 511.852 435.244 513.361C435.363 513.62 435.382 513.907 435.29 514.167C435.721 515.278 435.959 516.5 435.959 517.519C435.959 518.954 435.959 520.306 434.41 520.657C434.245 520.796 434.034 520.88 433.814 520.88H432.797C432.274 520.88 431.853 520.454 431.853 519.926V519.861C431.889 519.37 432.302 518.982 432.788 518.982H433.823C433.933 518.982 434.034 519 434.135 519.037C434.199 519.019 434.217 519 434.217 519C434.337 518.796 434.337 517.935 434.337 517.528C434.337 516.694 434.135 515.694 433.768 514.759C433.585 514.648 433.429 514.491 433.338 514.296C432.714 512.972 431.862 512.111 431.165 512.111C430.459 512.111 429.561 513.037 428.938 514.417C428.837 514.639 428.654 514.824 428.434 514.935C428.104 515.824 427.93 516.75 427.93 517.528C427.93 517.87 427.93 518.787 428.058 519.009C428.058 519.009 428.085 519.028 428.168 519.046C428.278 519.009 428.388 518.982 428.507 518.982H429.543C430.019 518.982 430.423 519.343 430.478 519.824L430.487 519.833V519.898C430.487 520.463 430.065 520.889 429.552 520.889H428.507C428.305 520.889 428.104 520.815 427.939 520.694C427.343 520.583 426.931 520.315 426.665 519.889C426.344 519.37 426.289 518.685 426.289 517.537C426.289 516.528 426.518 515.361 426.94 514.241C426.876 514 426.894 513.75 427.004 513.528C427.444 512.565 428.003 511.741 428.617 511.139ZM450.184 519H457.114C457.664 519 458.104 519.444 458.104 520C458.104 520.556 457.664 521 457.114 521H450.184C449.635 521 449.194 520.556 449.194 520C449.194 519.444 449.635 519 450.184 519Z" fill="#4CD080"/>
<path d="M453.567 489.648C453.108 489.648 452.43 489.491 451.724 488.732C451.193 488.315 447.691 485.667 443.75 485.667C439.836 485.667 436.298 488.324 435.776 488.732C435.07 489.482 434.392 489.639 433.933 489.639C433.869 489.639 433.814 489.639 433.759 489.63C433.475 489.602 433.172 489.5 432.898 489.324C432.806 489.907 432.751 490.5 432.751 491.111C432.751 497.25 437.682 506.491 443.759 506.491C449.836 506.491 454.767 497.25 454.767 491.111C454.767 490.5 454.712 489.907 454.621 489.324C454.346 489.509 454.034 489.611 453.75 489.639C453.686 489.648 453.631 489.648 453.567 489.648Z" fill="#4CD080"/>
<path d="M456.381 514.324C457.201 514.324 457.865 513.653 457.865 512.824C457.865 511.996 457.201 511.324 456.381 511.324C455.56 511.324 454.896 511.996 454.896 512.824C454.896 513.653 455.56 514.324 456.381 514.324Z" fill="#4CD080"/>
<path d="M452.164 476.676C452.164 476.676 448.14 475.213 444.511 475.028C444.254 475.019 444.007 475 443.75 475C443.493 475 443.246 475.019 442.989 475.019C439.359 475.213 435.336 476.667 435.336 476.667C434.245 477.065 433.356 478.352 433.356 479.528V487.074C433.356 487.75 433.567 488.111 433.887 488.139C433.906 488.139 433.915 488.139 433.933 488.139C434.162 488.139 434.446 487.981 434.758 487.63C434.758 487.63 438.901 484.167 443.75 484.167C448.599 484.167 452.742 487.63 452.742 487.63C453.053 487.981 453.337 488.139 453.567 488.139C453.585 488.139 453.594 488.139 453.612 488.139C453.933 488.111 454.144 487.75 454.144 487.074V479.537C454.144 478.361 453.255 477.065 452.164 476.676ZM446.353 480.639H444.786V482.241C444.786 482.407 444.666 482.537 444.529 482.537H442.98C442.833 482.537 442.723 482.407 442.723 482.241V480.639H441.156C441 480.639 440.872 480.519 440.872 480.37V478.787C440.872 478.639 441 478.519 441.156 478.519H442.723V476.926C442.723 476.759 442.842 476.63 442.98 476.63H444.529C444.676 476.63 444.786 476.759 444.786 476.926V478.528H446.353C446.509 478.528 446.637 478.648 446.637 478.796V480.37C446.637 480.519 446.509 480.639 446.353 480.639Z" fill="#4CD080"/>
</g>
<path d="M408.294 585.096L395.526 615H388.71L401.574 585.864H385.158V580.104H408.294V585.096ZM412.319 597.048C412.319 591.512 413.311 587.176 415.295 584.04C417.311 580.904 420.639 579.336 425.279 579.336C429.919 579.336 433.231 580.904 435.215 584.04C437.231 587.176 438.239 591.512 438.239 597.048C438.239 602.616 437.231 606.984 435.215 610.152C433.231 613.32 429.919 614.904 425.279 614.904C420.639 614.904 417.311 613.32 415.295 610.152C413.311 606.984 412.319 602.616 412.319 597.048ZM431.615 597.048C431.615 594.68 431.455 592.696 431.135 591.096C430.847 589.464 430.239 588.136 429.311 587.112C428.415 586.088 427.071 585.576 425.279 585.576C423.487 585.576 422.127 586.088 421.199 587.112C420.303 588.136 419.695 589.464 419.375 591.096C419.087 592.696 418.943 594.68 418.943 597.048C418.943 599.48 419.087 601.528 419.375 603.192C419.663 604.824 420.271 606.152 421.199 607.176C422.127 608.168 423.487 608.664 425.279 608.664C427.071 608.664 428.431 608.168 429.359 607.176C430.287 606.152 430.895 604.824 431.183 603.192C431.471 601.528 431.615 599.48 431.615 597.048ZM443.351 597.048C443.351 591.512 444.343 587.176 446.327 584.04C448.343 580.904 451.671 579.336 456.311 579.336C460.951 579.336 464.263 580.904 466.247 584.04C468.263 587.176 469.271 591.512 469.271 597.048C469.271 602.616 468.263 606.984 466.247 610.152C464.263 613.32 460.951 614.904 456.311 614.904C451.671 614.904 448.343 613.32 446.327 610.152C444.343 606.984 443.351 602.616 443.351 597.048ZM462.647 597.048C462.647 594.68 462.487 592.696 462.167 591.096C461.879 589.464 461.271 588.136 460.343 587.112C459.447 586.088 458.103 585.576 456.311 585.576C454.519 585.576 453.159 586.088 452.231 587.112C451.335 588.136 450.727 589.464 450.407 591.096C450.119 592.696 449.975 594.68 449.975 597.048C449.975 599.48 450.119 601.528 450.407 603.192C450.695 604.824 451.303 606.152 452.231 607.176C453.159 608.168 454.519 608.664 456.311 608.664C458.103 608.664 459.463 608.168 460.391 607.176C461.319 606.152 461.927 604.824 462.215 603.192C462.503 601.528 462.647 599.48 462.647 597.048ZM500.254 600.84H491.182V610.152H484.846V600.84H475.774V594.984H484.846V585.672H491.182V594.984H500.254V600.84Z" fill="#1B3C74"/>
<path d="M382.53 656.146V659.818H386.85V661.492H382.53V665.326H387.39V667H380.478V654.472H387.39V656.146H382.53ZM394.165 661.978L397.369 667H395.047L392.905 663.634L390.889 667H388.747L391.951 662.122L388.747 657.082H391.069L393.211 660.448L395.227 657.082H397.369L394.165 661.978ZM400.952 658.54C401.3 658.084 401.774 657.7 402.374 657.388C402.974 657.076 403.652 656.92 404.408 656.92C405.272 656.92 406.058 657.136 406.766 657.568C407.486 657.988 408.05 658.582 408.458 659.35C408.866 660.118 409.07 661 409.07 661.996C409.07 662.992 408.866 663.886 408.458 664.678C408.05 665.458 407.486 666.07 406.766 666.514C406.058 666.946 405.272 667.162 404.408 667.162C403.652 667.162 402.98 667.012 402.392 666.712C401.804 666.4 401.324 666.016 400.952 665.56V671.716H398.9V657.082H400.952V658.54ZM406.982 661.996C406.982 661.312 406.838 660.724 406.55 660.232C406.274 659.728 405.902 659.35 405.434 659.098C404.978 658.834 404.486 658.702 403.958 658.702C403.442 658.702 402.95 658.834 402.482 659.098C402.026 659.362 401.654 659.746 401.366 660.25C401.09 660.754 400.952 661.348 400.952 662.032C400.952 662.716 401.09 663.316 401.366 663.832C401.654 664.336 402.026 664.72 402.482 664.984C402.95 665.248 403.442 665.38 403.958 665.38C404.486 665.38 404.978 665.248 405.434 664.984C405.902 664.708 406.274 664.312 406.55 663.796C406.838 663.28 406.982 662.68 406.982 661.996ZM420.189 661.798C420.189 662.17 420.165 662.506 420.117 662.806H412.539C412.599 663.598 412.893 664.234 413.421 664.714C413.949 665.194 414.597 665.434 415.365 665.434C416.469 665.434 417.249 664.972 417.705 664.048H419.919C419.619 664.96 419.073 665.71 418.281 666.298C417.501 666.874 416.529 667.162 415.365 667.162C414.417 667.162 413.565 666.952 412.809 666.532C412.065 666.1 411.477 665.5 411.045 664.732C410.625 663.952 410.415 663.052 410.415 662.032C410.415 661.012 410.619 660.118 411.027 659.35C411.447 658.57 412.029 657.97 412.773 657.55C413.529 657.13 414.393 656.92 415.365 656.92C416.301 656.92 417.135 657.124 417.867 657.532C418.599 657.94 419.169 658.516 419.577 659.26C419.985 659.992 420.189 660.838 420.189 661.798ZM418.047 661.15C418.035 660.394 417.765 659.788 417.237 659.332C416.709 658.876 416.055 658.648 415.275 658.648C414.567 658.648 413.961 658.876 413.457 659.332C412.953 659.776 412.653 660.382 412.557 661.15H418.047ZM424.26 658.522C424.56 658.018 424.956 657.628 425.448 657.352C425.952 657.064 426.546 656.92 427.23 656.92V659.044H426.708C425.904 659.044 425.292 659.248 424.872 659.656C424.464 660.064 424.26 660.772 424.26 661.78V667H422.208V657.082H424.26V658.522ZM431.511 658.756V664.246C431.511 664.618 431.595 664.888 431.763 665.056C431.943 665.212 432.243 665.29 432.663 665.29H433.923V667H432.303C431.379 667 430.671 666.784 430.179 666.352C429.687 665.92 429.441 665.218 429.441 664.246V658.756H428.271V657.082H429.441V654.616H431.511V657.082H433.923V658.756H431.511ZM444.576 654.49C445.908 654.49 447.072 654.748 448.068 655.264C449.076 655.768 449.85 656.5 450.39 657.46C450.942 658.408 451.218 659.518 451.218 660.79C451.218 662.062 450.942 663.166 450.39 664.102C449.85 665.038 449.076 665.758 448.068 666.262C447.072 666.754 445.908 667 444.576 667H440.49V654.49H444.576ZM444.576 665.326C446.04 665.326 447.162 664.93 447.942 664.138C448.722 663.346 449.112 662.23 449.112 660.79C449.112 659.338 448.722 658.204 447.942 657.388C447.162 656.572 446.04 656.164 444.576 656.164H442.542V665.326H444.576ZM457.553 667.162C456.617 667.162 455.771 666.952 455.015 666.532C454.259 666.1 453.665 665.5 453.233 664.732C452.801 663.952 452.585 663.052 452.585 662.032C452.585 661.024 452.807 660.13 453.251 659.35C453.695 658.57 454.301 657.97 455.069 657.55C455.837 657.13 456.695 656.92 457.643 656.92C458.591 656.92 459.449 657.13 460.217 657.55C460.985 657.97 461.591 658.57 462.035 659.35C462.479 660.13 462.701 661.024 462.701 662.032C462.701 663.04 462.473 663.934 462.017 664.714C461.561 665.494 460.937 666.1 460.145 666.532C459.365 666.952 458.501 667.162 457.553 667.162ZM457.553 665.38C458.081 665.38 458.573 665.254 459.029 665.002C459.497 664.75 459.875 664.372 460.163 663.868C460.451 663.364 460.595 662.752 460.595 662.032C460.595 661.312 460.457 660.706 460.181 660.214C459.905 659.71 459.539 659.332 459.083 659.08C458.627 658.828 458.135 658.702 457.607 658.702C457.079 658.702 456.587 658.828 456.131 659.08C455.687 659.332 455.333 659.71 455.069 660.214C454.805 660.706 454.673 661.312 454.673 662.032C454.673 663.1 454.943 663.928 455.483 664.516C456.035 665.092 456.725 665.38 457.553 665.38ZM464.046 662.032C464.046 661.012 464.25 660.118 464.658 659.35C465.078 658.57 465.654 657.97 466.386 657.55C467.118 657.13 467.958 656.92 468.906 656.92C470.106 656.92 471.096 657.208 471.876 657.784C472.668 658.348 473.202 659.158 473.478 660.214H471.264C471.084 659.722 470.796 659.338 470.4 659.062C470.004 658.786 469.506 658.648 468.906 658.648C468.066 658.648 467.394 658.948 466.89 659.548C466.398 660.136 466.152 660.964 466.152 662.032C466.152 663.1 466.398 663.934 466.89 664.534C467.394 665.134 468.066 665.434 468.906 665.434C470.094 665.434 470.88 664.912 471.264 663.868H473.478C473.19 664.876 472.65 665.68 471.858 666.28C471.066 666.868 470.082 667.162 468.906 667.162C467.958 667.162 467.118 666.952 466.386 666.532C465.654 666.1 465.078 665.5 464.658 664.732C464.25 663.952 464.046 663.052 464.046 662.032ZM477.917 658.756V664.246C477.917 664.618 478.001 664.888 478.169 665.056C478.349 665.212 478.649 665.29 479.069 665.29H480.329V667H478.709C477.785 667 477.077 666.784 476.585 666.352C476.093 665.92 475.847 665.218 475.847 664.246V658.756H474.677V657.082H475.847V654.616H477.917V657.082H480.329V658.756H477.917ZM486.522 667.162C485.586 667.162 484.74 666.952 483.984 666.532C483.228 666.1 482.634 665.5 482.202 664.732C481.77 663.952 481.554 663.052 481.554 662.032C481.554 661.024 481.776 660.13 482.22 659.35C482.664 658.57 483.27 657.97 484.038 657.55C484.806 657.13 485.664 656.92 486.612 656.92C487.56 656.92 488.418 657.13 489.186 657.55C489.954 657.97 490.56 658.57 491.004 659.35C491.448 660.13 491.67 661.024 491.67 662.032C491.67 663.04 491.442 663.934 490.986 664.714C490.53 665.494 489.906 666.1 489.114 666.532C488.334 666.952 487.47 667.162 486.522 667.162ZM486.522 665.38C487.05 665.38 487.542 665.254 487.998 665.002C488.466 664.75 488.844 664.372 489.132 663.868C489.42 663.364 489.564 662.752 489.564 662.032C489.564 661.312 489.426 660.706 489.15 660.214C488.874 659.71 488.508 659.332 488.052 659.08C487.596 658.828 487.104 658.702 486.576 658.702C486.048 658.702 485.556 658.828 485.1 659.08C484.656 659.332 484.302 659.71 484.038 660.214C483.774 660.706 483.642 661.312 483.642 662.032C483.642 663.1 483.912 663.928 484.452 664.516C485.004 665.092 485.694 665.38 486.522 665.38ZM495.751 658.522C496.051 658.018 496.447 657.628 496.939 657.352C497.443 657.064 498.037 656.92 498.721 656.92V659.044H498.199C497.395 659.044 496.783 659.248 496.363 659.656C495.955 660.064 495.751 660.772 495.751 661.78V667H493.699V657.082H495.751V658.522ZM504.207 667.162C503.427 667.162 502.725 667.024 502.101 666.748C501.489 666.46 501.003 666.076 500.643 665.596C500.283 665.104 500.091 664.558 500.067 663.958H502.191C502.227 664.378 502.425 664.732 502.785 665.02C503.157 665.296 503.619 665.434 504.171 665.434C504.747 665.434 505.191 665.326 505.503 665.11C505.827 664.882 505.989 664.594 505.989 664.246C505.989 663.874 505.809 663.598 505.449 663.418C505.101 663.238 504.543 663.04 503.775 662.824C503.031 662.62 502.425 662.422 501.957 662.23C501.489 662.038 501.081 661.744 500.733 661.348C500.397 660.952 500.229 660.43 500.229 659.782C500.229 659.254 500.385 658.774 500.697 658.342C501.009 657.898 501.453 657.55 502.029 657.298C502.617 657.046 503.289 656.92 504.045 656.92C505.173 656.92 506.079 657.208 506.763 657.784C507.459 658.348 507.831 659.122 507.879 660.106H505.827C505.791 659.662 505.611 659.308 505.287 659.044C504.963 658.78 504.525 658.648 503.973 658.648C503.433 658.648 503.019 658.75 502.731 658.954C502.443 659.158 502.299 659.428 502.299 659.764C502.299 660.028 502.395 660.25 502.587 660.43C502.779 660.61 503.013 660.754 503.289 660.862C503.565 660.958 503.973 661.084 504.513 661.24C505.233 661.432 505.821 661.63 506.277 661.834C506.745 662.026 507.147 662.314 507.483 662.698C507.819 663.082 507.993 663.592 508.005 664.228C508.005 664.792 507.849 665.296 507.537 665.74C507.225 666.184 506.781 666.532 506.205 666.784C505.641 667.036 504.975 667.162 504.207 667.162Z" fill="#77829D"/>
</g>
</g>
<defs>
<filter id="filter0_d_32_1137" x="0" y="0" width="322.5" height="384" filterUnits="userSpaceOnUse" color-interpolation-filters="sRGB">
<feFlood flood-opacity="0" result="BackgroundImageFix"/>
<feColorMatrix in="SourceAlpha" type="matrix" values="0 0 0 0 0 0 0 0 0 0 0 0 0 0 0 0 0 0 127 0" result="hardAlpha"/>
<feMorphology radius="5" operator="erode" in="SourceAlpha" result="effect1_dropShadow_32_1137"/>
<feOffset dy="15"/>
<feGaussianBlur stdDeviation="22.5"/>
<feComposite in2="hardAlpha" operator="out"/>
<feColorMatrix type="matrix" values="0 0 0 0 0 0 0 0 0 0 0 0 0 0 0 0 0 0 0.07 0"/>
<feBlend mode="normal" in2="BackgroundImageFix" result="effect1_dropShadow_32_1137"/>
<feBlend mode="normal" in="SourceGraphic" in2="effect1_dropShadow_32_1137" result="shape"/>
</filter>
<filter id="filter1_d_32_1137" x="277.5" y="49" width="332.5" height="384" filterUnits="userSpaceOnUse" color-interpolation-filters="sRGB">
<feFlood flood-opacity="0" result="BackgroundImageFix"/>
<feColorMatrix in="SourceAlpha" type="matrix" values="0 0 0 0 0 0 0 0 0 0 0 0 0 0 0 0 0 0 127 0" result="hardAlpha"/>
<feMorphology radius="5" operator="erode" in="SourceAlpha" result="effect1_dropShadow_32_1137"/>
<feOffset dy="15"/>
<feGaussianBlur stdDeviation="22.5"/>
<feComposite in2="hardAlpha" operator="out"/>
<feColorMatrix type="matrix" values="0 0 0 0 0 0 0 0 0 0 0 0 0 0 0 0 0 0 0.07 0"/>
<feBlend mode="normal" in2="BackgroundImageFix" result="effect1_dropShadow_32_1137"/>
<feBlend mode="normal" in="SourceGraphic" in2="effect1_dropShadow_32_1137" result="shape"/>
</filter>
<filter id="filter2_d_32_1137" x="0" y="339" width="322.5" height="384" filterUnits="userSpaceOnUse" color-interpolation-filters="sRGB">
<feFlood flood-opacity="0" result="BackgroundImageFix"/>
<feColorMatrix in="SourceAlpha" type="matrix" values="0 0 0 0 0 0 0 0 0 0 0 0 0 0 0 0 0 0 127 0" result="hardAlpha"/>
<feMorphology radius="5" operator="erode" in="SourceAlpha" result="effect1_dropShadow_32_1137"/>
<feOffset dy="15"/>
<feGaussianBlur stdDeviation="22.5"/>
<feComposite in2="hardAlpha" operator="out"/>
<feColorMatrix type="matrix" values="0 0 0 0 0 0 0 0 0 0 0 0 0 0 0 0 0 0 0.07 0"/>
<feBlend mode="normal" in2="BackgroundImageFix" result="effect1_dropShadow_32_1137"/>
<feBlend mode="normal" in="SourceGraphic" in2="effect1_dropShadow_32_1137" result="shape"/>
</filter>
<filter id="filter3_d_32_1137" x="277.5" y="385" width="332.5" height="384" filterUnits="userSpaceOnUse" color-interpolation-filters="sRGB">
<feFlood flood-opacity="0" result="BackgroundImageFix"/>
<feColorMatrix in="SourceAlpha" type="matrix" values="0 0 0 0 0 0 0 0 0 0 0 0 0 0 0 0 0 0 127 0" result="hardAlpha"/>
<feMorphology radius="5" operator="erode" in="SourceAlpha" result="effect1_dropShadow_32_1137"/>
<feOffset dy="15"/>
<feGaussianBlur stdDeviation="22.5"/>
<feComposite in2="hardAlpha" operator="out"/>
<feColorMatrix type="matrix" values="0 0 0 0 0 0 0 0 0 0 0 0 0 0 0 0 0 0 0.07 0"/>
<feBlend mode="normal" in2="BackgroundImageFix" result="effect1_dropShadow_32_1137"/>
<feBlend mode="normal" in="SourceGraphic" in2="effect1_dropShadow_32_1137" result="shape"/>
</filter>
<clipPath id="clip0_32_1137">
<rect x="40" y="25" width="242.5" height="304" rx="8" fill="white"/>
</clipPath>
<clipPath id="clip1_32_1137">
<rect width="50" height="50" fill="white" transform="translate(136.25 90)"/>
</clipPath>
<clipPath id="clip2_32_1137">
<rect x="317.5" y="74" width="252.5" height="304" rx="8" fill="white"/>
</clipPath>
<clipPath id="clip3_32_1137">
<rect x="40" y="364" width="242.5" height="304" rx="8" fill="white"/>
</clipPath>
<clipPath id="clip4_32_1137">
<rect x="317.5" y="410" width="252.5" height="304" rx="8" fill="white"/>
</clipPath>
<clipPath id="clip5_32_1137">
<rect width="50" height="50" fill="white" transform="translate(418.75 475)"/>
</clipPath>
</defs>
</svg>
